<svg xmlns="http://www.w3.org/2000/svg" version="1.1" xmlns:xlink="http://www.w3.org/1999/xlink" xmlns:svgjs="http://svgjs.dev/svgjs" width="1000" height="378" viewBox="0 0 1000 378"><g transform="matrix(1,0,0,1,-0.6060606060606233,-0.5800646065956983)"><svg viewBox="0 0 396 150" data-background-color="#ffffff" preserveAspectRatio="xMidYMid meet" height="378" width="1000" xmlns="http://www.w3.org/2000/svg" xmlns:xlink="http://www.w3.org/1999/xlink"><g id="tight-bounds" transform="matrix(1,0,0,1,0.2400000000000091,0.23018436769670814)"><svg viewBox="0 0 395.52 149.53963126460658" height="149.53963126460658" width="395.52"><g><svg viewBox="0 0 395.52 149.53963126460658" height="149.53963126460658" width="395.52"><g><svg viewBox="0 0 395.52 149.53963126460658" height="149.53963126460658" width="395.52"><g><svg viewBox="0 0 395.52 149.53963126460658" height="149.53963126460658" width="395.52"><g><svg viewBox="0 0 395.52 149.53963126460658" height="149.53963126460658" width="395.52"><g transform="matrix(1,0,0,1,0,0)"><svg width="395.52" viewBox="-0.07 -35.55 94.00999999999999 35.55" height="149.53963126460658" data-palette-color="#0063db"><path d="M24.95 0L22.88-6.64 11.13-6.64 9.08 0-0.07 0 12.96-35.55 21.02-35.55 34.16 0 24.95 0ZM16.99-25.59L13.18-13.26 20.83-13.26 16.99-25.59ZM44.19-35.55L50-23.73 55.81-35.55 65.6-35.55 55.66-17.92 65.87 0 55.98 0 50-12.04 44.02 0 34.15 0 44.33-17.92 34.42-35.55 44.19-35.55ZM79.27 0L80.9-10.01 76.97-10.01 75.34 0 70.48 0 72.11-10.01 66.69-10.01 66.69-14.48 72.85-14.48 73.92-20.92 68.53-20.92 68.53-25.39 74.65-25.39 76.34-35.55 81.17-35.55 79.51-25.39 83.44-25.39 85.13-35.55 89.99-35.55 88.3-25.39 93.94-25.39 93.94-20.92 87.57-20.92 86.49-14.48 92.08-14.48 92.08-10.01 85.76-10.01 84.13 0 79.27 0ZM78.78-20.92L77.7-14.48 81.64-14.48 82.71-20.92 78.78-20.92Z" opacity="1" transform="matrix(1,0,0,1,0,0)" fill="#0063db" class="undefined-text-0" data-fill-palette-color="primary" id="text-0"></path></svg></g></svg></g></svg></g></svg></g></svg></g><defs></defs></svg><rect width="395.52" height="149.53963126460658" fill="none" stroke="none" visibility="hidden"></rect></g></svg></g></svg>