<?xml version="1.0" standalone="no"?>
<!DOCTYPE svg PUBLIC "-//W3C//DTD SVG 20010904//EN"
 "http://www.w3.org/TR/2001/REC-SVG-20010904/DTD/svg10.dtd">
<svg xmlns="http://www.w3.org/2000/svg" version="1.1" xmlns:xlink="http://www.w3.org/1999/xlink" xmlns:svgjs="http://svgjs.dev/svgjs" width="100" height="100" viewBox="0 0 1000 1000"><rect width="1000" height="1000" fill="#ffffff"></rect><g transform="matrix(0.7,0,0,0.7,150.32428355957774,217.7787044534412)"><svg viewBox="0 0 306 247" data-background-color="#ffffff" preserveAspectRatio="xMidYMid meet" height="807" width="1000" xmlns="http://www.w3.org/2000/svg" xmlns:xlink="http://www.w3.org/1999/xlink"><defs></defs><g id="tight-bounds" transform="matrix(1,0,0,1,-0.1417582417582537,-0.09999999999999432)"><svg viewBox="0 0 306.2835164835165 247.2" height="247.2" width="306.2835164835165"><g><svg viewBox="0 0 306.2835164835165 247.2" height="247.2" width="306.2835164835165"><g><svg viewBox="0 0 306.2835164835165 247.2" height="247.2" width="306.2835164835165"><g><svg viewBox="0 0 306.2835164835165 247.2" height="247.2" width="306.2835164835165"><g><svg viewBox="0 0 306.2835164835165 247.2" height="247.2" width="306.2835164835165"><g><svg viewBox="0 0 306.2835164835165 247.2" height="247.2" width="306.2835164835165"><g><svg viewBox="0 0 306.2835164835165 247.2" height="247.2" width="306.2835164835165"><g transform="matrix(1,0,0,1,0,0)"><svg width="306.2835164835165" viewBox="3.27 -35.55 44.04 35.55" height="247.2" data-palette-color="#0080ff"><path d="M11.82-35.55L11.82 0 3.27 0 3.27-35.55 11.82-35.55ZM25.63-35.55L31.44-23.73 37.25-35.55 47.04-35.55 37.11-17.92 47.31 0 37.42 0 31.44-12.04 25.46 0 15.6 0 25.78-17.92 15.87-35.55 25.63-35.55Z" opacity="1" transform="matrix(1,0,0,1,0,0)" fill="#0080ff" class="undefined-text-0" data-fill-palette-color="primary" id="text-0"></path></svg></g></svg></g></svg></g></svg></g><g></g></svg></g></svg></g></svg></g></svg><rect width="306.2835164835165" height="247.2" fill="none" stroke="none" visibility="hidden"></rect></g></svg></g></svg>
